<?xml version="1.0" encoding="utf-8"?>
<!-- Generator: Adobe Illustrator 19.0.0, SVG Export Plug-In . SVG Version: 6.00 Build 0)  -->
<svg version="1.1" id="layer" xmlns="http://www.w3.org/2000/svg" xmlns:xlink="http://www.w3.org/1999/xlink" x="0px" y="0px"
	 viewBox="-153 -46 652 652" style="enable-background:new -153 -46 652 652;" xml:space="preserve">
<style type="text/css">
	.st0{fill:#B40025;}
	.st1{fill:#6C6D71;}
</style>
<path id="XMLID_1_" d="M87.8,400.1L87.8,400.1l2.9,9.2h-5.8L87.8,400.1z M86.7,397.6L80.5,416h2.3l1.5-4.8h7l1.5,4.8h2.4l-6-18.4
	H86.7z M104.1,397.6h4.7c1.9,0,3,0.5,3.9,1.3c1,0.9,1.4,2.2,1.4,3.5c0,2-0.9,3.8-3.6,4.4v0.1c1.1,0.2,1.6,0.7,2,1.8l2.6,7.4h-2.5
	l-2.1-6.2c-0.5-1.5-1.2-2.1-2.9-2.1h-1.1v8.3h-2.3 M106.4,405.8h1.8c2.5,0,3.4-1.6,3.4-3.3c0-2.1-1.4-3-3.4-3h-1.8V405.8z
	 M121.8,397.6v2h4.2V416h2.3v-16.4h4.2v-2H121.8z M151.5,397.6v15.2h-0.1l-6.9-15.2h-2.9V416h2.2V401h0.1l6.9,15.1h2.9v-18.4H151.5z
	 M164.4,397.6V416h8.9v-2h-6.6v-6.5h6v-2h-6v-5.9h6.3v-2H164.4z M183.2,397.6h4.7c1.9,0,3,0.5,3.9,1.3c1,0.9,1.4,2.2,1.4,3.5
	c0,2-0.9,3.8-3.6,4.4v0.1c1.1,0.2,1.6,0.7,2,1.8l2.6,7.4h-2.5l-2.1-6.2c-0.5-1.5-1.2-2.1-2.9-2.1h-1.1v8.3h-2.3 M185.5,405.8h1.8
	c2.5,0,3.4-1.6,3.4-3.3c0-2.1-1.4-3-3.4-3h-1.9V405.8z M211,398.1c-0.8-0.3-2.1-0.6-3.3-0.6c-2.8,0-5.1,1.6-5.1,4.6
	c0,2.4,0.7,3.5,4.1,5.5c2.5,1.5,2.8,2.3,2.8,3.7c0,1.5-1.2,2.9-3.3,2.9c-1.1,0-2.5-0.5-3.5-1.2v2.4c1,0.5,2.4,0.8,3.9,0.8
	c3.5,0,5.4-2.3,5.4-5.2c0-2.1-1-3.7-3.8-5.4c-2.7-1.5-3.1-2.3-3.1-3.5c0-1.6,1.1-2.7,2.9-2.7c1.1,0,2.3,0.3,3.1,0.8 M234.7,416.1
	h2.3v-18.4h-2.3V416.1z M257.5,397.6v15.2h-0.1l-6.9-15.2h-2.9V416h2.2V401h0.1l6.9,15.1h2.9v-18.4H257.5z M283.3,397.6h4.4
	c1.9,0,3,0.5,4,1.4c0.9,0.9,1.4,2.2,1.4,3.8c0,3.6-2.1,5.5-6,5.5h-1.6v7.7h-2.3 M285.6,406.5h1.3c2.8,0,3.9-1.3,3.9-3.4
	c0-2.5-1.4-3.5-3.8-3.5h-1.3V406.5z M65.2,397.6h4.4c1.9,0,3,0.5,4,1.4c0.9,0.9,1.4,2.2,1.4,3.8c0,3.6-2.1,5.5-6,5.5h-1.6v7.7h-2.3
	 M67.5,406.5h1.3c2.8,0,3.9-1.3,3.9-3.4c0-2.5-1.4-3.5-3.8-3.5h-1.3V406.5z M302.6,397.6h4.7c1.9,0,3,0.5,3.9,1.3
	c1,0.9,1.4,2.2,1.4,3.5c0,2-0.9,3.8-3.6,4.4v0.1c1.1,0.2,1.6,0.7,2,1.8l2.6,7.4H311l-2.1-6.2c-0.5-1.5-1.2-2.1-2.9-2.1h-1.1v8.3
	h-2.3 M304.9,405.8h1.8c2.5,0,3.4-1.6,3.4-3.3c0-2.1-1.4-3-3.4-3h-1.8V405.8z M329,397.5c4.1,0,6.7,3.5,6.7,9.2
	c0,6.3-2.6,9.6-6.9,9.6c-4.1,0-6.7-3.5-6.7-9.2C322.1,400.7,324.6,397.5,329,397.5 M328.8,414.3c2.4,0,4.5-2,4.5-7.7
	c0-3.7-1.2-7.3-4.3-7.3c-2.4,0-4.5,2-4.5,7.7C324.5,410.8,325.6,414.3,328.8,414.3 M342.8,397.6v2h4.2V416h2.3v-16.4h4.2v-2H342.8z
	 M362.7,397.6V416h8.9v-2H365v-6.5h6v-2h-6v-5.9h6.3v-2H362.7z M392.3,413.4c-1,0.5-2.1,0.9-3.3,0.9c-4,0-5.9-3.1-5.9-7.9
	c0-4.5,2.7-6.9,5.7-6.9c1.3,0,2.5,0.3,3.5,0.9v-2.3c-0.8-0.4-2.2-0.7-3.5-0.7c-4.8,0-8.1,3.6-8.1,9.4c0,5,2.4,9.4,8.3,9.4
	c1.1,0,2.2-0.2,3.4-0.5 M400.7,397.6v2h4.2V416h2.3v-16.4h4.2v-2H400.7z M420.5,416.1h2.3v-18.4h-2.3V416.1z M439.6,397.5
	c4.1,0,6.7,3.5,6.7,9.2c0,6.3-2.5,9.6-6.9,9.6c-4.1,0-6.7-3.5-6.7-9.2C432.7,400.7,435.3,397.5,439.6,397.5 M439.4,414.3
	c2.4,0,4.5-2,4.5-7.7c0-3.7-1.2-7.3-4.3-7.3c-2.4,0-4.5,2-4.5,7.7C435.1,410.8,436.3,414.3,439.4,414.3 M466.1,397.6v15.2H466
	l-6.9-15.2h-2.9V416h2.2V401h0.1l6.9,15.1h2.9v-18.4H466.1z M283.2,291.6v-8.5h-32.8v8.5H261v70.9h-10.5v8.5h32.8v-8.5h-10.5v-70.9
	 M228.3,288c-5.4-4.1-5.4-4.1-35.1-4.8h-44v0H127v8.5h10.6v70.8H127v8.5h10.6v0.1h11.7v-33.1h43.9c8.7,0,13.8,0,15.4-0.1
	c11.6-0.3,15.4-1.3,20.2-5.4c4.7-3.9,6.6-10.3,6.6-22.1C235.4,298.4,233.3,291.9,228.3,288 M219.8,324.7c-3.6,2.9-5.3,3.2-26.6,3.2
	h-43.9v-34.3h43.9c22,0.4,23.3,0.7,26.9,3.3c2.6,2,3.3,4.9,3.3,14C223.4,319.1,222.5,322.4,219.8,324.7 M402.4,288
	c-5.4-4.1-5.4-4.1-35.1-4.8h-44v0h-22.3v8.5h10.6v70.8h-10.6v8.5h10.6v0.1h11.7v-33.1h43.9c8.7,0,13.9,0,15.4-0.1
	c11.6-0.3,15.4-1.3,20.2-5.4c4.8-3.9,6.6-10.3,6.6-22.1C409.5,298.4,407.4,291.9,402.4,288 M394,324.7c-3.6,2.9-5.3,3.2-26.6,3.2
	h-43.9v-34.3h43.9c22,0.4,23.3,0.7,26.9,3.3c2.6,2,3.3,4.9,3.3,14C397.5,319.1,396.6,322.4,394,324.7"/>
<path id="XMLID_26_" class="st0" d="M102.9,269.7c-7.3-3.8-27.7-9.2-20.1-19.1c-3.9-0.9-8.1-1.6-12.3-2.2
	c36.9-19.8,103.9-83.9,141.9-118.6h-10.3c-43.2,43.1-95.8,93.9-134.6,118.2c-5.1-0.7-10.2-1.4-15.1-1.9c-2.2-0.3-4.2-1.5-6.2-3.7
	c-1-1.1-1.9-3.2-0.7-4c10.3-3.7,21.5-5.3,31.8-9c-5-3.4-10.2-5.1-15.3-7.5c35.8-19.2,74.4-56.1,111.1-92h-9.9
	c-36.5,39-65.2,67.8-102.5,91.1c-3.7-3.4,0.7-7.5,2-11c1.4-2.8,2.8-5.6,4.2-8.3c-7.8,1-15.5,1.1-22.4,3.2c-1.1-0.1-2.2-0.3-3.2-1.4
	c-0.1-0.1-0.2-0.3-0.4-0.5c28.6-15.3,62.1-42.6,95-73.2h-7.1C101.5,157.2,73.5,181,40,201.9c-3.3-4-5.8-8.6-8.3-12.4
	c-6.2,7.1-10.3,14.5-17.5,20.5c-9-1.7-9.3-9.1-9.2-16.7c25.1-13.4,56.5-36.5,88.4-63.5h-7c-26,23.3-52.6,43.5-81.3,61.5
	c0-3.6-0.1-7.1-1.1-10c-13.5,2.3-18.8-10.1-25.7-18.8c-2.6,3.6-6.1,6.2-7.6,9.9c-4,7.4-12.4,2.5-17.6-0.1c1,7.9,7.3,90.8,7.4,91.2
	c0,0,125.3,23.8,125.5,23.8c-0.8-3.1-2.8-5.2-4.8-7.5c0.1-1,0.2-1.9,0.3-2.9C88.3,272.9,96.1,271.8,102.9,269.7"/>
<path id="XMLID_25_" class="st1" d="M-64.3,244.9c0.1-1,0.2-1.9,0.3-2.9c-23.6,13.4-46.1,27.8-67.7,42.9v-19.3
	c7.2-5.3,14.3-10.6,21.8-16.3c14.2-10.1,28.4-19.2,43.6-28.2c0.7-6.8-0.9-12.9-1.3-19.8c4.2,1.5,8.2,5.9,12.9,3.5
	c2.1-0.8,4-2.1,5.7-3.7c0.9,10.9,1.9,23.1,2.7,34.1C-52.3,238.4-58.3,241.7-64.3,244.9 M-61.8,274.7c4.6-2.4,9.3-4.8,13.9-7.2
	c1.3-0.9,2.5-1.7,3.8-2.6c-0.3-3.6-1-13.6-2-25.9c-30,18.3-58.5,37.9-85.6,59.2v18.9c22.3-16.5,45.5-31.9,70.3-46.3
	C-61.5,271.8-61.7,273.7-61.8,274.7 M64.1,305.4c5.7-2.3,12.5-3.4,18.2-5.7c-5.2-3.6-11.6-5.3-17.8-9c-2-1.2-3.2-2.7-3.6-4.5
	c-7.4-1.4-15.9-3-24.8-4.7c-35.4,23-72.2,44.6-105.8,71.8c-16.9,14.7-37.1,29-52.9,43.8c-3.1,3-6.1,5.9-9.1,8.7v14.7
	c52-48,115-83.5,124.9-90.1c11.1-7.4,27.8-15.2,36.2-20.3c11.9,2.4,24.8,4.9,36.8,6.3c-2-2.2-4-4.4-4.8-7.4
	C61.6,308.1,59.6,305.9,64.1,305.4 M-6.3,304.5c11.7-6.5,23.2-12,35-19.4c1.6-1.5,3.3-2.8,5.2-4c-11.5-2.2-23.5-4.5-34.6-6.6
	C-29,292-58,311.5-83.9,329.2c-16.8,12.3-32.6,25.3-47.8,38.8v18.1c36.4-30.6,75.9-57.6,121-82.2C-9.6,304.1-7.4,304.4-6.3,304.5
	 M-46.3,296.2c13.8-8.2,27.1-15.4,40.5-22.6c-16.4-3.1-30-5.7-35.5-6.7c-27.6,17.7-54.3,36.5-80.6,57.6c-3.1,2.8-6.3,5.6-9.8,8.4
	v18.3c25.4-19.8,52.3-38.3,81-55.6C-49.6,295.8-47.4,296.1-46.3,296.2"/>
</svg>
